<?xml version="1.0" encoding="iso-8859-1"?>
<!-- Uploaded to: SVG Repo, www.svgrepo.com, Generator: SVG Repo Mixer Tools -->
<svg height="800px" width="800px" version="1.1" id="Layer_1" xmlns="http://www.w3.org/2000/svg" xmlns:xlink="http://www.w3.org/1999/xlink" 
	 viewBox="0 0 512 512" xml:space="preserve">
<path style="fill:#74C8EE;" d="M141.617,10.705l-21.787,99.593l21.787,99.593c32.745-10.321,57.191-50.991,57.191-99.593
	C198.809,61.695,174.362,21.026,141.617,10.705z"/>
<path style="fill:#AEE6FF;" d="M125.277,8.17c-40.61,0-73.532,45.724-73.532,102.128c0,48.603,24.446,89.272,57.191,99.593v277.599
	c0,9.024,7.316,16.34,16.34,16.34s16.34-7.316,16.34-16.34V10.705C136.361,9.048,130.893,8.17,125.277,8.17z"/>
<polygon style="fill:#D1F1FF;" points="460.255,269.617 460.255,302.298 405.787,302.298 405.787,269.617 416.681,269.617 "/>
<path style="fill:#A65A3A;" d="M438.468,302.298l-5.447,201.532c15.044,0,27.234-12.19,27.234-27.234V302.298H438.468z"/>
<path style="fill:#D3754F;" d="M438.468,302.298v174.298c0,15.044-2.44,27.234-5.447,27.234c-15.044,0-27.234-12.19-27.234-27.234
	V302.298H438.468z"/>
<path style="fill:#74C8EE;" d="M340.426,106.213v57.191c0,21.341-13.639,39.489-32.681,46.222V106.213H340.426z"/>
<g>
	<path style="fill:#AEE6FF;" d="M307.745,209.626v277.863c0,9.02-7.32,16.34-16.34,16.34c-9.02,0-16.34-7.321-16.34-16.34V209.626
		c-19.042-6.732-32.681-24.881-32.681-46.222v-57.191h65.362V209.626z"/>
	<path style="fill:#AEE6FF;" d="M384,84.426v185.191h32.681L460.255,8.17C418.141,8.17,384,42.311,384,84.426z"/>
</g>
<path style="fill:#74C8EE;" d="M460.255,8.17v261.447h-43.574V84.426C416.681,42.311,436.191,8.17,460.255,8.17z"/>
<path d="M125.277,0c-22.34,0-43.161,11.828-58.625,33.308c-14.882,20.668-23.077,48.01-23.077,76.99
	c0,48.86,23.233,91.076,57.191,105.292v271.899c0,13.515,10.995,24.511,24.511,24.511s24.511-10.996,24.511-24.511V215.59
	c33.959-14.216,57.191-56.433,57.191-105.292c0-28.979-8.195-56.321-23.077-76.99C168.437,11.828,147.616,0,125.277,0z
	 M139.162,202.099c-3.402,1.072-5.715,4.227-5.715,7.792v277.598c0,4.506-3.665,8.17-8.17,8.17c-4.506,0-8.17-3.665-8.17-8.17
	V209.892c0-3.565-2.313-6.72-5.715-7.792c-29.827-9.401-51.477-48.01-51.477-91.802c0-51.809,29.321-93.957,65.362-93.957
	s65.362,42.148,65.362,93.957C190.638,154.089,168.988,192.698,139.162,202.099z"/>
<path d="M460.255,0c-46.552,0-84.426,37.874-84.426,84.426v185.191c0,4.513,3.658,8.17,8.17,8.17h13.617v198.809
	c0,19.522,15.883,35.404,35.404,35.404c19.521,0,35.404-15.882,35.404-35.404V8.17C468.426,3.657,464.767,0,460.255,0z
	 M452.085,294.128h-38.128v-16.34h38.128V294.128z M392.17,261.447V84.426c0-34.779,26.209-63.55,59.915-67.598v244.619H392.17z
	 M433.021,495.66c-10.511,0-19.064-8.553-19.064-19.064V310.468h38.128v166.128C452.085,487.107,443.533,495.66,433.021,495.66z"/>
<path d="M340.426,0c-4.512,0-8.17,3.657-8.17,8.17v89.872h-16.34V8.17c0-4.513-3.658-8.17-8.17-8.17c-4.512,0-8.17,3.657-8.17,8.17
	v89.872h-16.34V8.17c0-4.513-3.658-8.17-8.17-8.17c-4.512,0-8.17,3.657-8.17,8.17v89.872h-16.34V8.17c0-4.513-3.658-8.17-8.17-8.17
	c-4.512,0-8.17,3.657-8.17,8.17v155.234c0,22.211,12.914,42.296,32.681,51.677v272.408c0,13.515,10.995,24.511,24.511,24.511
	c13.516,0,24.511-10.996,24.511-24.511V215.081c19.766-9.38,32.681-29.466,32.681-51.677V8.17C348.596,3.657,344.938,0,340.426,0z
	 M305.021,201.922c-3.265,1.155-5.447,4.241-5.447,7.703v277.865c0,4.506-3.665,8.17-8.17,8.17s-8.17-3.665-8.17-8.17V209.626
	c0-3.463-2.182-6.549-5.447-7.703c-16.289-5.758-27.234-21.238-27.234-38.518v-49.021h16.34v2.723c0,4.513,3.658,8.17,8.17,8.17
	c4.512,0,8.17-3.657,8.17-8.17v-2.724h16.34v2.723c0,4.513,3.658,8.17,8.17,8.17c4.512,0,8.17-3.657,8.17-8.17v-2.723h16.34v49.021
	C332.255,180.684,321.31,196.162,305.021,201.922z"/>
</svg>